<?xml version="1.0" encoding="utf-8"?>
<!-- Generator: Adobe Illustrator 22.1.0, SVG Export Plug-In . SVG Version: 6.00 Build 0)  -->
<svg version="1.1" id="Layer_1" xmlns="http://www.w3.org/2000/svg" xmlns:xlink="http://www.w3.org/1999/xlink" x="0px" y="0px"
	 viewBox="0 0 131.681732 138.07135" style="enable-background:new 0 0 131.681732 138.07135;" xml:space="preserve">
<style type="text/css">
	.st0{fill:#010101;}
	.st1{fill:#69BFA8;}
</style>
<path class="st0" d="M117.791252,0H13.890478C6.21738,0,0,6.21738,0,13.890478v124.18087h131.681732V13.890478
	C131.681732,6.21738,125.464355,0,117.791252,0z M65.285248,105.845444c-22.130318,0-40.132359-18.002075-40.132359-40.132355
	c0-22.130322,18.002041-40.132397,40.132359-40.132397s40.132362,18.002075,40.132362,40.132397
	C105.41761,87.843369,87.415565,105.845444,65.285248,105.845444z"/>
<path class="st1" d="M98.181732,66.178062c0,18.140213-14.756271,32.896484-32.896484,32.896484
	S32.388763,84.318275,32.388763,66.178062c0-1.316284,0.075626-2.61235,0.226917-3.883236
	c2.728363,0.605186,4.377483,2.45097,6.107281,4.387554c2.244209,2.511475,4.559002,5.103668,9.228966,5.103668
	c4.675014,0,6.989807-2.592194,9.22897-5.103668c2.113083-2.365242,4.11018-4.599358,8.104351-4.599358
	s5.986221,2.234116,8.099304,4.599358c2.239159,2.511475,4.558998,5.103668,9.228966,5.103668
	c4.675018,0,6.989807-2.592194,9.234016-5.103668c1.724777-1.936584,3.373871-3.782368,6.107285-4.387554
	C98.106102,63.565712,98.181732,64.861778,98.181732,66.178062z"/>
</svg>
