<?xml version="1.0" encoding="utf-8"?>
<!-- Generator: Adobe Illustrator 22.1.0, SVG Export Plug-In . SVG Version: 6.00 Build 0)  -->
<svg version="1.1" id="Layer_1" xmlns="http://www.w3.org/2000/svg" xmlns:xlink="http://www.w3.org/1999/xlink" x="0px" y="0px"
	 viewBox="0 0 141.7323 82.2047" style="enable-background:new 0 0 141.7323 82.2047;" xml:space="preserve">
<style type="text/css">
	.st0{fill:none;}
	.st1{fill:#BA0023;}
</style>
<line class="st0" x1="78.6117" y1="-109.7001" x2="194.94" y2="-109.7001"/>
<g>
	<path class="st1" d="M40.4842,1.2778c-0.1011,0-0.2022,0-0.3033,0.0042C18.2174,1.4421,0.4663,19.2942,0.4663,41.2957
		c0,22.1025,17.9154,40.0179,40.0179,40.0179c0.1222,0,0.2443,0,0.3623-0.0042v0.0042H66.698v-63.026h-8.5006v54.517H40.8464
		c-0.1222,0.0042-0.2401,0.0042-0.3623,0.0042c-17.4015,0-31.5088-14.1116-31.5088-31.513
		c0-17.3004,13.9431-31.3445,31.2055-31.5046c0.1011-0.0042,0.2022-0.0042,0.3033-0.0042c0.2738,0,0.5434,0.0042,0.813,0.0084
		h99.9688V1.2778H40.4842z"/>
	<polygon class="st1" points="83.7077,18.2875 75.2028,18.2875 75.2028,81.3219 83.7077,81.3219 83.7077,45.7608 116.7161,45.7608 
		116.7161,37.2517 83.7077,37.2517 	"/>
</g>
</svg>
