<?xml version="1.0" encoding="utf-8"?>
<!-- Generator: Adobe Illustrator 22.1.0, SVG Export Plug-In . SVG Version: 6.00 Build 0)  -->
<svg version="1.1" id="Layer_1" xmlns="http://www.w3.org/2000/svg" xmlns:xlink="http://www.w3.org/1999/xlink" x="0px" y="0px"
	 viewBox="0 0 167 78" style="enable-background:new 0 0 167 78;" xml:space="preserve">
<style type="text/css">
	.st0{fill:#BA0023;}
</style>
<g>
	<g>
		<path class="st0" d="M83.366249,66.134659c0.105949,0.050323,0.195984,0.124474,0.267502,0.217178
			C83.562233,66.26178,83.469543,66.187614,83.366249,66.134659z"/>
	</g>
	<g>
		<path class="st0" d="M83.586067,66.134659c-0.060905,0.031784-0.119164,0.071495-0.172134,0.116531
			C83.466904,66.203506,83.525162,66.163788,83.586067,66.134659z"/>
	</g>
	<g>
		<path class="st0" d="M83.42717,67.38208c0.055626-0.047676,0.103294-0.100647,0.14566-0.158905
			C83.533112,67.284088,83.482796,67.337059,83.42717,67.38208z"/>
	</g>
	<g>
		<path class="st0" d="M83.551643,66.98481c-0.018539,0.084747-0.055618,0.161568-0.103287,0.233063
			C83.496025,67.14901,83.530457,67.069557,83.551643,66.98481z"/>
	</g>
	<g>
		<path class="st0" d="M68.147331,1.60499c-0.051086,0-0.102173,0-0.153259,0.002131
			C56.895447,1.688009,47.925438,10.709088,47.925438,21.82688c0,11.168863,9.053028,20.221891,20.221893,20.221891
			c0.061722,0,0.123459,0,0.183052-0.002132v0.002132H81.39373V10.200358h-4.295555v27.548595h-8.767792
			c-0.061722,0.002129-0.12133,0.002129-0.183052,0.002129c-8.793331,0-15.922077-7.130875-15.922077-15.924204
			c0-8.742244,7.045727-15.839068,15.768818-15.919957c0.051086-0.002118,0.102173-0.002118,0.153259-0.002118
			c0.138359,0,0.274582,0.002118,0.41082,0.004249h50.516411V1.60499H68.147331z"/>
		<polygon class="st0" points="89.989098,10.200358 85.691414,10.200358 85.691414,42.053017 89.989098,42.053017 
			89.989098,24.083212 106.668961,24.083212 106.668961,19.783396 89.989098,19.783396 		"/>
	</g>
	<g>
		<path class="st0" d="M0.757284,75.455627V60.805393h2.811964c2.081454,0,3.547393,0.105156,4.398157,0.315132
			c0.850425,0.21032,1.59603,0.56226,2.236478,1.055824c0.840587,0.647232,1.477642,1.474419,1.911335,2.481731
			c0.433523,1.007484,0.650455,2.168297,0.650455,3.482437c0,1.307693-0.215066,2.463409-0.645535,3.467339
			c-0.430131,1.004257-1.069052,1.82975-1.916254,2.476814c-0.640448,0.493729-1.369431,0.845505-2.186612,1.055817
			c-0.817181,0.209976-2.089765,0.31514-3.817582,0.31514h-0.63044H0.757284z M2.518514,73.814476H3.62929
			c1.801258,0,3.04874-0.078354,3.742615-0.235077c0.693705-0.156715,1.270888-0.425385,1.731209-0.805649
			c0.600419-0.500351,1.057349-1.145882,1.370957-1.936264c0.313439-0.790726,0.470329-1.696274,0.470329-2.716988
			c0-1.027328-0.155024-1.929649-0.46541-2.706802c-0.310047-0.777153-0.768842-1.419296-1.375876-1.92643
			c-0.460321-0.386883-1.045815-0.661991-1.756142-0.825665c-0.710666-0.163334-1.949837-0.245087-3.717682-0.245087H2.518514
			V73.814476z"/>
		<path class="st0" d="M23.983509,66.299232v9.156395h-1.521063v-1.661163c-0.367035,0.667244-0.835499,1.175735-1.406067,1.526154
			c-0.570229,0.350075-1.20915,0.525284-1.916254,0.525284c-1.314308,0-2.373352-0.451843-3.177135-1.356033
			c-0.804121-0.903854-1.205927-2.099602-1.205927-3.587425c0-1.50766,0.390272-2.706802,1.170817-3.597595
			c0.780546-0.89045,1.824495-1.335846,3.132189-1.335846c0.767145,0,1.432526,0.171814,1.996309,0.515274
			c0.563784,0.343796,1.019016,0.855682,1.366039,1.536156v-1.721199H23.983509z M22.462446,70.962486
			c0-1.033943-0.281891-1.866219-0.845675-2.496826c-0.563784-0.630272-1.299213-0.94558-2.206457-0.94558
			c-0.940657,0-1.674561,0.290207-2.201538,0.870613c-0.527147,0.580399-0.790552,1.390968-0.790552,2.431694
			c0,1.107552,0.26527,1.961372,0.795471,2.56179c0.53054,0.600418,1.282591,0.900627,2.25666,0.900627
			c0.933872,0,1.666079-0.291725,2.196619-0.875694C22.197176,72.825485,22.462446,72.010002,22.462446,70.962486z"/>
		<path class="st0" d="M25.994915,65.908958l1.901327-5.433796l1.701189,0.590412l-2.451714,5.313713L25.994915,65.908958z"/>
		<path class="st0" d="M47.750111,76.866608h-2.150654l-1.950516-2.091454c-0.580067,0.340233-1.215084,0.593803-1.90506,0.760529
			c-0.689972,0.166725-1.441685,0.250175-2.254795,0.250175c-0.826847,0-1.615196-0.12178-2.365211-0.365173
			c-0.749847-0.243561-1.441517-0.602112-2.074841-1.075836c-1.026649-0.753746-1.804989-1.659462-2.335018-2.71698
			c-0.530033-1.057182-0.794964-2.219688-0.794964-3.48735c0-1.020714,0.196579-1.998009,0.589905-2.932053
			c0.393494-0.933868,0.960163-1.767845,1.70034-2.501747c0.746624-0.720501,1.593315-1.272411,2.540077-1.656071
			c0.946594-0.383659,1.943394-0.575485,2.990227-0.575485c1.040047,0,2.016663,0.170116,2.930012,0.510353
			c0.913349,0.34024,1.739861,0.847374,2.480038,1.521065c0.786991,0.713886,1.388767,1.556004,1.805328,2.526852
			c0.416561,0.970505,0.624844,2.0131,0.624844,3.127098c0,1.17421-0.223206,2.246483-0.6703,3.217331
			c-0.446411,0.970512-1.097038,1.796173-1.950516,2.476646L47.750111,76.866608z M41.579189,70.231979l2.169651,2.331627
			c0.626709-0.493568,1.108402-1.117393,1.444908-1.871307c0.336506-0.753746,0.504761-1.577713,0.504761-2.471725
			c0-0.600418-0.069881-1.172348-0.209637-1.716286c-0.140438-0.543602-0.343292-1.035637-0.609921-1.475945
			c-0.553604-0.913864-1.276653-1.621136-2.169819-2.121483c-0.893337-0.500351-1.883183-0.750526-2.969532-0.750526
			c-0.806667,0-1.575001,0.150105-2.304832,0.450317c-0.729832,0.300209-1.374859,0.730511-1.93457,1.290901
			c-0.560051,0.560394-0.990185,1.205757-1.290054,1.93644c-0.29987,0.730339-0.449806,1.499352-0.449806,2.306526
			c0,1.034111,0.208282,1.96476,0.624844,2.791946c0.416561,0.827362,1.041405,1.541077,1.87487,2.141495
			c0.473209,0.347023,0.993065,0.608902,1.559734,0.785637c0.566666,0.176735,1.15979,0.265099,1.779716,0.265099
			c0.546654,0,1.05328-0.053253,1.519875-0.16011c0.466599-0.106682,0.89978-0.273415,1.299892-0.500351l-2.989716-3.232254
			H41.579189z"/>
		<path class="st0" d="M51.732555,66.299232v4.503143c0,1.314308,0.195389,2.233253,0.585491,2.757011
			c0.390442,0.523758,1.04921,0.785461,1.976295,0.785461c0.927429,0,1.582802-0.258484,1.966461-0.775627
			c0.383656-0.5168,0.575657-1.43914,0.575657-2.766846v-4.503143h1.601116v5.343727
			c0,1.380966-0.353806,2.426613-1.061081,3.137276c-0.706932,0.710327-1.747662,1.065666-3.122181,1.065666
			c-1.36095,0-2.394894-0.357033-3.101826-1.070747c-0.707275-0.713722-1.061081-1.757843-1.061081-3.132195v-5.343727H51.732555z"
			/>
		<path class="st0" d="M69.995483,66.299232v9.156395h-1.521065v-1.661163c-0.367035,0.667244-0.835495,1.175735-1.406067,1.526154
			c-0.570229,0.350075-1.20932,0.525284-1.916252,0.525284c-1.31448,0-2.373524-0.451843-3.177135-1.356033
			c-0.803951-0.903854-1.205929-2.099602-1.205929-3.587425c0-1.50766,0.390442-2.706802,1.17065-3.597595
			c0.780884-0.89045,1.824665-1.335846,3.132359-1.335846c0.766975,0,1.432526,0.171814,1.996307,0.515274
			c0.563782,0.343796,1.01902,0.855682,1.366043,1.536156v-1.721199H69.995483z M68.474419,70.962486
			c0-1.033943-0.281891-1.866219-0.845673-2.496826c-0.563789-0.630272-1.299217-0.94558-2.206627-0.94558
			c-0.940323,0-1.674393,0.290207-2.201538,0.870613c-0.52681,0.580399-0.790386,1.390968-0.790386,2.431694
			c0,1.107552,0.26527,1.961372,0.795471,2.56179c0.53054,0.600418,1.282589,0.900627,2.256832,0.900627
			c0.933876,0,1.665909-0.291725,2.196449-0.875694C68.209152,72.825485,68.474419,72.010002,68.474419,70.962486z"/>
		<path class="st0" d="M73.127838,75.455627v-9.156395h1.531242v1.41098c0.393494-0.587021,0.867043-1.023933,1.420654-1.310913
			c0.55394-0.286812,1.194389-0.430298,1.921341-0.430298c1.08075,0,1.924736,0.28698,2.531937,0.860596
			c0.606865,0.573792,0.910469,1.370956,0.910469,2.39167v6.23436h-1.60112v-5.393768
			c0-0.927261-0.195053-1.616219-0.585159-2.06636c-0.390442-0.450485-0.992554-0.67556-1.806343-0.67556
			c-0.46711,0-0.892487,0.084976-1.27581,0.255264c-0.383652,0.169952-0.702179,0.411987-0.955582,0.725426
			c-0.193695,0.240166-0.332092,0.513748-0.415543,0.820572c-0.08345,0.306992-0.125168,0.840584-0.125168,1.60112v4.733307
			H73.127838z"/>
		<path class="st0" d="M90.75032,75.455627V60.805393h7.725395v1.59111h-5.984177v4.202938h5.984177v1.621132h-5.984177v7.235054
			H90.75032z"/>
		<path class="st0" d="M100.636887,75.455627v-9.156395h1.391144v1.901321c0.419952-0.79377,0.867043-1.360947,1.340591-1.701187
			c0.473892-0.340233,1.050903-0.510353,1.731384-0.510353c0.186569,0,0.366692,0.014923,0.540375,0.045113
			c0.17334,0.029854,0.346687,0.074974,0.520363,0.13501l-0.520363,1.410988c-0.180122-0.060043-0.35041-0.104988-0.510529-0.135178
			c-0.16011-0.029854-0.313438-0.044945-0.459976-0.044945c-0.827362,0-1.447792,0.298683-1.861641,0.895706
			c-0.413513,0.597031-0.620094,1.495964-0.620094,2.6968v4.46312H100.636887z"/>
		<path class="st0" d="M115.987946,71.112595h-7.255234v0.140099c0,0.980682,0.280197,1.772926,0.840584,2.376572
			c0.560394,0.603981,1.291077,0.905716,2.19136,0.905716c0.613991,0,1.167603-0.165199,1.661507-0.495262
			c0.493561-0.330399,0.930481-0.82888,1.310745-1.496124l1.190659,0.80056c-0.459984,0.827354-1.047173,1.451012-1.76123,1.8713
			c-0.713715,0.420296-1.540733,0.630447-2.481735,0.630447c-1.394188,0-2.521759-0.460327-3.382019-1.380966
			c-0.860939-0.920647-1.291077-2.128098-1.291077-3.622536c0-1.434219,0.426743-2.608429,1.280899-3.522461
			c0.853813-0.913857,1.951195-1.370956,3.292465-1.370956c1.354172,0,2.426445,0.433693,3.217163,1.300911
			c0.790382,0.867386,1.185913,2.05143,1.185913,3.552483V71.112595z M114.306778,69.841705
			c-0.053596-0.807175-0.322266-1.429306-0.805649-1.866219c-0.483727-0.43692-1.145889-0.655548-1.986473-0.655548
			c-0.760536,0-1.394531,0.228638-1.901329,0.685394c-0.507133,0.4571-0.80056,1.069221-0.880615,1.836372H114.306778z"/>
		<path class="st0" d="M126.525139,71.112595h-7.255234v0.140099c0,0.980682,0.28019,1.772926,0.840584,2.376572
			c0.560394,0.603981,1.291069,0.905716,2.19136,0.905716c0.613991,0,1.167595-0.165199,1.661499-0.495262
			c0.493568-0.330399,0.930481-0.82888,1.310745-1.496124l1.190666,0.80056c-0.459984,0.827354-1.047173,1.451012-1.76123,1.8713
			c-0.713722,0.420296-1.540741,0.630447-2.481735,0.630447c-1.394196,0-2.521759-0.460327-3.382019-1.380966
			c-0.860947-0.920647-1.291077-2.128098-1.291077-3.622536c0-1.434219,0.426743-2.608429,1.280899-3.522461
			c0.853813-0.913857,1.951195-1.370956,3.292465-1.370956c1.354172,0,2.426445,0.433693,3.217163,1.300911
			c0.790382,0.867386,1.185913,2.05143,1.185913,3.552483V71.112595z M124.843964,69.841705
			c-0.053596-0.807175-0.322258-1.429306-0.805649-1.866219c-0.483727-0.43692-1.145882-0.655548-1.986465-0.655548
			c-0.760536,0-1.394539,0.228638-1.901329,0.685394c-0.507133,0.4571-0.80056,1.069221-0.880615,1.836372H124.843964z"/>
		<path class="st0" d="M141.635696,75.455627v-5.393768c0-0.927261-0.186905-1.616219-0.560394-2.06636
			c-0.373825-0.450485-0.947433-0.67556-1.721207-0.67556c-0.420288,0-0.809036,0.084976-1.165894,0.255264
			c-0.356857,0.169952-0.658768,0.411987-0.905716,0.725426c-0.179794,0.240166-0.310043,0.520363-0.390106,0.840584
			c-0.080048,0.320229-0.120087,0.847374-0.120087,1.581108v4.733307h-1.51088v-5.393768
			c0-0.927261-0.186905-1.616219-0.560394-2.06636c-0.373825-0.450485-0.947433-0.67556-1.721207-0.67556
			c-0.420624,0-0.812424,0.084976-1.176071,0.255264c-0.363647,0.169952-0.668945,0.411987-0.915558,0.725426
			c-0.173676,0.233551-0.298508,0.503738-0.375168,0.810562c-0.077011,0.306999-0.115341,0.843979-0.115341,1.61113v4.733307
			h-1.51088v-9.156395h1.531235v1.41098c0.379929-0.587021,0.833801-1.023933,1.360947-1.310913
			c0.52681-0.286812,1.134018-0.430298,1.820938-0.430298c0.74086,0,1.371124,0.158585,1.891495,0.475243
			c0.520355,0.317001,0.913849,0.779022,1.180817,1.386055c0.393494-0.627052,0.858902-1.093987,1.395889-1.400978
			c0.536987-0.306824,1.159119-0.46032,1.866394-0.46032c1.020706,0,1.817871,0.28698,2.391495,0.860596
			c0.573959,0.573792,0.860947,1.370956,0.860947,2.39167v6.23436H141.635696z"/>
		<path class="st0" d="M154.795059,66.299232v9.156395h-1.521057v-1.661163c-0.36705,0.667244-0.83551,1.175735-1.406067,1.526154
			c-0.570236,0.350075-1.20932,0.525284-1.91626,0.525284c-1.314484,0-2.37352-0.451843-3.177139-1.356033
			c-0.803955-0.903854-1.205917-2.099602-1.205917-3.587425c0-1.50766,0.390442-2.706802,1.170639-3.597595
			c0.780884-0.89045,1.824661-1.335846,3.132355-1.335846c0.766983,0,1.432526,0.171814,1.996323,0.515274
			c0.563782,0.343796,1.019012,0.855682,1.366028,1.536156v-1.721199H154.795059z M153.274002,70.962486
			c0-1.033943-0.281891-1.866219-0.845688-2.496826c-0.563782-0.630272-1.29921-0.94558-2.206619-0.94558
			c-0.940323,0-1.674393,0.290207-2.201538,0.870613c-0.52681,0.580399-0.79039,1.390968-0.79039,2.431694
			c0,1.107552,0.265274,1.961372,0.795471,2.56179c0.530548,0.600418,1.282593,0.900627,2.256836,0.900627
			c0.933868,0,1.665909-0.291725,2.196457-0.875694C153.008728,72.825485,153.274002,72.010002,153.274002,70.962486z"/>
		<path class="st0" d="M157.927078,75.455627v-9.156395h1.531235v1.41098c0.393494-0.587021,0.86705-1.023933,1.420654-1.310913
			c0.553955-0.286812,1.194397-0.430298,1.921341-0.430298c1.080765,0,1.924744,0.28698,2.531937,0.860596
			c0.606873,0.573792,0.910477,1.370956,0.910477,2.39167v6.23436h-1.60112v-5.393768
			c0-0.927261-0.195053-1.616219-0.585159-2.06636c-0.390442-0.450485-0.992554-0.67556-1.806351-0.67556
			c-0.467102,0-0.892487,0.084976-1.275803,0.255264c-0.383652,0.169952-0.702179,0.411987-0.955582,0.725426
			c-0.193695,0.240166-0.332092,0.513748-0.415543,0.820572c-0.08345,0.306992-0.125168,0.840584-0.125168,1.60112v4.733307
			H157.927078z"/>
	</g>
</g>
</svg>
