<?xml version="1.0" encoding="utf-8"?>
<!-- Generator: Adobe Illustrator 22.1.0, SVG Export Plug-In . SVG Version: 6.00 Build 0)  -->
<svg version="1.1" id="Layer_1" xmlns="http://www.w3.org/2000/svg" xmlns:xlink="http://www.w3.org/1999/xlink" x="0px" y="0px"
	 viewBox="0 0 119 76" style="enable-background:new 0 0 119 76;" xml:space="preserve">
<style type="text/css">
	.st0{fill:#000000;}
</style>
<g>
	<g>
		<rect x="38.2" y="0.7" class="st0" width="42.5" height="42.5"/>
		<polygon fill="#FFD764" points="72.2,9.2 72.2,34.8 46.7,34.8 46.7,26.3 55.2,26.3 55.2,17.7 63.7,17.7 63.7,9.2 		"/>
	</g>
	<g>
		<rect fill="#FFD764" x="20.2" y="59" class="st0" width="3.3" height="16.5"/>
		<path class="st0" d="M74.7,66.8h5.6v8c-0.9,0.3-1.8,0.5-2.7,0.6s-2,0.2-3.1,0.2c-2.5,0-4.4-0.7-5.8-2.2c-1.4-1.5-2.1-3.6-2.1-6.3
			c0-1.7,0.3-3.2,1-4.5c0.7-1.3,1.7-2.3,3-3c1.3-0.7,2.8-1,4.6-1c1.8,0,3.4,0.3,4.9,1l-0.7,1.7c-1.5-0.6-2.9-0.9-4.3-0.9
			c-2,0-3.6,0.6-4.7,1.8c-1.1,1.2-1.7,2.9-1.7,5c0,2.2,0.5,3.9,1.6,5.1c1.1,1.2,2.7,1.7,4.8,1.7c1.1,0,2.3-0.1,3.4-0.4v-5.1h-3.7
			V66.8z"/>
		<path class="st0" d="M99.1,63.8c0,1.7-0.6,3-1.7,3.9c-1.1,0.9-2.8,1.4-4.9,1.4h-1.9v6.5h-1.9V59h4.3C97.1,59,99.1,60.6,99.1,63.8z
			 M90.6,67.3h1.7c1.7,0,2.9-0.3,3.7-0.8c0.8-0.5,1.1-1.4,1.1-2.6c0-1.1-0.4-1.9-1.1-2.4c-0.7-0.5-1.8-0.8-3.3-0.8h-2.1V67.3z"/>
		<path class="st0" d="M114.9,75.5l-2.1-5.3h-6.6l-2,5.3h-1.9l6.5-16.6h1.6l6.5,16.6H114.9z M112.3,68.5l-1.9-5.1
			c-0.2-0.6-0.5-1.4-0.8-2.4c-0.2,0.7-0.4,1.5-0.7,2.4l-1.9,5.1H112.3z"/>
		<polygon class="st0" points="15.1,72.1 15.1,75.4 1.9,75.4 1.9,59 5.2,59 5.2,72.1 		"/>
		<polygon class="st0" points="41.8,59 41.8,62.3 31.9,62.3 31.9,65.6 38.5,65.6 38.5,68.9 31.9,68.9 31.9,75.4 28.6,75.4 28.6,59 
					"/>
		<polygon class="st0" points="50.2,62.3 50.2,65.6 56.8,65.6 56.8,68.9 50.2,68.9 50.2,72.1 60.1,72.1 60.1,75.4 46.9,75.4 
			46.9,59 60.1,59 60.1,62.3 		"/>
	</g>
</g>
</svg>