<?xml version="1.0" encoding="utf-8"?>
<!-- Generator: Adobe Illustrator 22.1.0, SVG Export Plug-In . SVG Version: 6.00 Build 0)  -->
<svg version="1.1" id="Layer_1" xmlns="http://www.w3.org/2000/svg" xmlns:xlink="http://www.w3.org/1999/xlink" x="0px" y="0px"
	 viewBox="0 0 128 77" style="enable-background:new 0 0 128 77;" xml:space="preserve">
<style type="text/css">
	.st0{fill:#012E40;}
</style>
<g>
	<g>
		<g>
			<path class="st0" d="M64.8,50.6L64.8,50.6z"/>
		</g>
	</g>
	<g>
		<path class="st0" d="M85.8,21.5c0,2.2-0.9,4.3-2.5,5.9c-1.6,1.6-3.7,2.4-5.9,2.4h0l-8.9,0l-2.2,5.4l6.4,0.3l-7.9,15.1l4.4-12.9
			l-6.4-0.3l3.2-7.6l0.6-1.4l0,0l0.1-0.3c0.2-0.3,0.6-0.6,1-0.6h0c0,0,0,0,0,0l1.7,0l7.9,0h0c1.6,0,3.1-0.6,4.2-1.7
			c1.1-1.1,1.8-2.6,1.8-4.3v0c0-3-2.1-5.5-5-5.9l-1.1-0.2l0.1-1.1c0-0.3,0-0.6,0-0.9c0-5.2-4.2-9.5-9.4-9.5c-3.2,0-6.1,1.6-7.9,4.2
			l-0.6,0.9l-0.9-0.5C57.9,8,57,7.8,56.1,7.8h0c-3.2,0-5.8,2.6-5.8,5.8c0,0.2,0,0.4,0,0.5l0.1,1.1l-1.1,0.2c-2.8,0.5-4.9,3-4.9,5.9
			c0,3,2.1,5.5,5,6h0c0.1,0,0.2,0,0.3,0c0.5,0.1,0.9,0.6,0.9,1.1c0,0.7-0.5,1.2-1.2,1.2h0c-0.1,0-0.2,0-0.3,0c-4-0.7-7-4.1-7-8.3
			c0-3.6,2.4-6.8,5.8-7.9c0.1-4.4,3.8-7.9,8.1-7.9h0c0.9,0,1.8,0.2,2.7,0.5C61,3.1,64.4,1.5,68,1.5h0.1c6.5,0,11.8,5.3,11.7,11.9
			v0.1C83.4,14.5,85.8,17.7,85.8,21.5z"/>
	</g>
</g>
<g>
	<path class="st0" d="M6.6,71.5l3.5,4.6H8.5l-4.2-5.6c0.8,0,1.9,0.1,2.7-0.2C8.2,70,9,69,9,67.7c0-0.9-0.5-1.9-1.4-2.4
		c-0.8-0.4-1.5-0.5-2.4-0.5H3.1v11.2H1.9V63.8H5c0.9,0,2.2,0,3,0.5c1.4,0.7,2.2,2,2.2,3.5C10.2,69.9,8.6,71.4,6.6,71.5z"/>
	<path class="st0" d="M25.2,76.1v-1.6h0c-0.8,1.2-2.1,1.8-3.6,1.8c-2.7,0-4.9-2.1-4.9-4.8c0-2.7,2.2-4.8,4.9-4.8
		c1.4,0,2.8,0.6,3.6,1.8h0V67h1.2v9.1H25.2z M21.6,67.8c-2.2,0-3.7,1.6-3.7,3.8c0,2.1,1.6,3.7,3.7,3.7c2.1,0,3.7-1.7,3.7-3.7
		C25.3,69.5,23.7,67.8,21.6,67.8z"/>
	<path class="st0" d="M33.7,65.9v-2.1h1.2v2.1H33.7z M33.7,76.1V67h1.2v9.1H33.7z"/>
	<path class="st0" d="M49.1,76.1v-5c0-0.9-0.2-1.9-0.9-2.5c-0.5-0.5-1.3-0.8-2-0.8c-0.7,0-1.5,0.3-2,0.8c-0.6,0.6-0.9,1.6-0.9,2.4
		v5.1h-1.2V67h1.2v1.2h0c0.6-0.9,1.7-1.4,2.8-1.4c2.6,0,4,1.8,4,4.3v5H49.1z"/>
	<path class="st0" d="M67,66.9c-0.9-1.1-2-1.7-3.5-1.7c-2.6,0-4.6,2.2-4.6,4.7c0,2.5,2,4.8,4.6,4.8c1.3,0,2.5-0.7,3.4-1.6h2.2
		c-1.2,2.1-3.2,3.3-5.6,3.3c-3.5,0-6.3-3-6.3-6.5c0-3.5,2.8-6.4,6.4-6.4c1.3,0,2.7,0.4,3.8,1.2c0.9,0.6,1.4,1.3,1.9,2.2H67z"/>
	<path class="st0" d="M75.8,76.1V63.8h1.7v12.4H75.8z"/>
	<path class="st0" d="M89.5,76.3c-2.7,0-5-2.2-5-4.9c0-2.7,2.3-4.8,5-4.8c2.7,0,5,2.1,5,4.8C94.5,74.1,92.3,76.3,89.5,76.3z
		 M89.5,68.2c-1.8,0-3.3,1.5-3.3,3.3c0,1.8,1.5,3.3,3.3,3.3c1.8,0,3.3-1.5,3.3-3.3C92.8,69.7,91.3,68.2,89.5,68.2z"/>
	<path class="st0" d="M107.9,76.1v-1h0c-0.5,0.9-1.7,1.2-2.7,1.2c-1,0-1.9-0.3-2.6-0.9c-1-0.9-1.2-2.3-1.2-3.6v-5h1.7v5
		c0,1.6,0.5,2.9,2.3,2.9c1.8,0,2.4-1.3,2.4-2.9v-5h1.7v9.3H107.9z"/>
	<path class="st0" d="M124.5,76.1v-1.3h0c-0.8,1.1-2,1.6-3.3,1.6c-2.8,0-4.8-2.1-4.8-4.8c0-2.8,2-4.9,4.8-4.9c1.2,0,2.4,0.5,3.1,1.4
		h0v-4.2h1.7v12.4H124.5z M121.3,68.2c-1.8,0-3.2,1.5-3.2,3.3c0,1.7,1.4,3.3,3.2,3.3c1.8,0,3.2-1.5,3.2-3.3
		C124.5,69.7,123.2,68.2,121.3,68.2z"/>
</g>
</svg>
