<?xml version="1.0" encoding="utf-8"?>
<svg version="1.1" id="Layer_1" xmlns="http://www.w3.org/2000/svg" xmlns:xlink="http://www.w3.org/1999/xlink" x="0px" y="0px" 
 viewBox="0 0 123 98" style="enable-background:new 0 0 123 98;" xml:space="preserve">
<style type="text/css">
	.st1{fill:#00A8C5;}
	.st0{fill:#00A8C5;}
</style>
<switch>
	<g>
		<g>
			<g>
				<g>
					<path class="st1" d="M79.371613,44.782677H62.604076c-0.550549,0-0.996799-0.446251-0.996799-0.996796
						c0-0.550549,0.446251-0.996796,0.996799-0.996796h16.767536c0.550545,0,0.996796,0.446247,0.996796,0.996796
						C80.368408,44.336426,79.922157,44.782677,79.371613,44.782677z"/>
				</g>
				<g>
					<path class="st0" d="M30.053612,7.750431c-0.565876,0.334259-1.196308,0.508944-1.838146,0.508944
						c-0.300045,0-0.600067-0.041818-0.900087-0.113955c-0.93428-0.239312-1.716637-0.827905-2.210352-1.659612
						c-0.493715-0.827998-0.634258-1.80027-0.394991-2.734526c0.239265-0.934256,0.82415-1.720344,1.65588-2.214083
						c1.712811-1.01789,3.934566-0.452015,4.948586,1.260819C32.332321,4.510853,31.766445,6.732634,30.053612,7.750431z"/>
				</g>
				<g>
					<path class="st0" d="M34.121117,30.13113c0,0.258322-0.030388,0.51655-0.094944,0.774776
						c-0.205078,0.805189-0.714001,1.48502-1.427998,1.906528c-0.497517,0.296242-1.040606,0.43681-1.583696,0.43681
						c-1.063393,0-2.09642-0.543159-2.677479-1.522943c-0.877302-1.473614-0.39119-3.387743,1.082378-4.264977
						c1.477369-0.877325,3.391478-0.387388,4.268778,1.089935C33.972996,29.037395,34.121117,29.580462,34.121117,30.13113z"/>
				</g>
				<g>
					<path class="st0" d="M34.413559,21.13785c-0.205097,0.805189-0.71022,1.481216-1.427994,1.906528
						c-0.486137,0.288639-1.029226,0.436808-1.57992,0.436808c-0.262053,0-0.520304-0.030413-0.774754-0.098841
						c-0.808943-0.205006-1.481171-0.71015-1.906527-1.424194c-0.877302-1.477322-0.391167-3.387651,1.08618-4.264977
						c0.713997-0.425312,1.549528-0.543066,2.358473-0.337969c0.805141,0.205099,1.477367,0.71015,1.902725,1.427996
						C34.497101,19.497152,34.618633,20.328953,34.413559,21.13785z"/>
				</g>
				<g>
					<path class="st0" d="M25.484812,29.010784c0,0.429205-0.056978,0.86212-0.163305,1.287523
						c-0.341816,1.340652-1.181149,2.468603-2.373655,3.171148c-0.82415,0.49374-1.731819,0.725449-2.631931,0.725449
						c-1.765985,0-3.4902-0.903938-4.454868-2.529427c-0.706394-1.188683-0.907692-2.582464-0.565876-3.919315
						c0.338015-1.340651,1.181126-2.468601,2.369856-3.17124c1.188728-0.706348,2.582533-0.907738,3.919382-0.565876
						c1.340652,0.341768,2.464802,1.184881,3.171196,2.373655C25.237942,27.187798,25.484812,28.091734,25.484812,29.010784z"/>
				</g>
				<g>
					<path class="st0" d="M27.11408,15.106909c0,0.303846-0.03797,0.603799-0.113932,0.903845
						c-0.239265,0.938057-0.83173,1.724237-1.66346,2.217978c-0.565876,0.337967-1.196331,0.508852-1.841948,0.508852
						c-0.300045,0-0.600067-0.034122-0.900112-0.113861c-0.934256-0.239313-1.724215-0.827999-2.221731-1.659706
						c-1.017822-1.716635-0.448145-3.942122,1.268492-4.96372c0.83173-0.493739,1.803978-0.630503,2.742035-0.391283
						c0.938082,0.235512,1.728018,0.824197,2.217955,1.655904C26.943172,13.830791,27.11408,14.465002,27.11408,15.106909z"/>
				</g>
				<g>
					<path class="st0" d="M33.004547,39.204247c0,1.636894-0.839333,3.235775-2.347067,4.132015
						c-0.767174,0.455814-1.610285,0.668427-2.438213,0.668427c-1.640673,0-3.239576-0.83551-4.135862-2.343246
						c-1.352034-2.274906-0.600067-5.222042,1.674841-6.574097c2.274908-1.351967,5.225843-0.599998,6.574076,1.674908
						C32.788067,37.529335,33.004547,38.37254,33.004547,39.204247z"/>
				</g>
				<path class="st1" d="M97.97998,30.849983c-4.049988-1.450012-8.149963-2.5-8.190002-2.51001l-0.019958-0.049988
					l-0.150024,0.01001c-0.039978-0.01001-0.099976-0.039978-0.179993-0.080017
					c-0.039978-0.019958-0.080017-0.039978-0.119995-0.070007c-0.400024-0.25-1.23999-0.929993-2.309998-2.689941
					c-2.679993-4.380005-5.790039-9.070007-8.710022-9.070007H48.47998c0.820007,0.529968,1.540039,1.199951,2.119995,2h21.860046
					v7.070007c0,2.509949,2.039978,4.539978,4.539978,4.539978h11.539978c0.179993,0.089966,0.340027,0.159973,0.480042,0.200012
					c0.019958,0.01001,0.039978,0.019958,0.070007,0.019958c0.099976,0.030029,0.190002,0.050049,0.259949,0.059998
					c0.51001,0.140015,4.26001,1.119995,7.960022,2.440002c3.179993,1.140015,3.590027,3.160034,3.630005,3.420044v6.649963
					h-2.880005c-0.549988,0-1,0.450012-1,0.98999c0,0.559998,0.450012,1,1,1h2.880005v0.460022
					c0,1.400024-1.140015,2.539978-2.539978,2.539978H95.5c-0.47998-3.289978-3.320007-5.829956-6.75-5.829956
					c-3.419983,0-6.27002,2.539978-6.75,5.829956H59.76001c-0.47998-3.289978-3.330017-5.829956-6.75-5.829956
					s-6.27002,2.539978-6.75,5.829956h-1.72998c-1.400024,0-2.540039-1.139954-2.540039-2.539978v-0.400024
					c-0.609985,0.180054-1.26001,0.280029-1.929993,0.280029H40v0.119995c0,2.5,2.030029,4.530029,4.530029,4.530029h1.72998
					c0.47998,3.289978,3.330017,5.829956,6.75,5.829956s6.27002-2.539978,6.75-5.829956H82
					c0.47998,3.289978,3.330017,5.829956,6.75,5.829956c3.429993,0,6.27002-2.539978,6.75-5.829956h2.900024
					c2.5,0,4.529968-2.030029,4.529968-4.530029v-9.25C102.919983,35.849983,102.580017,32.500008,97.97998,30.849983z
					 M77,28.000008c-1.400024,0-2.539978-1.130005-2.539978-2.539978v-7.070007h3.839966
					c2.049988,0,5.650024,5.889954,7.01001,8.109985c0.340027,0.559998,0.679993,1.059998,1.030029,1.5H77z M53.01001,53.609993
					c-2.660034,0-4.830017-2.169983-4.830017-4.839966c0-2.660034,2.169983-4.830017,4.830017-4.830017
					c2.659973,0,4.830017,2.169983,4.830017,4.830017C57.840027,51.44001,55.669983,53.609993,53.01001,53.609993z M88.75,53.609993
					c-2.659973,0-4.830017-2.169983-4.830017-4.839966c0-2.660034,2.170044-4.830017,4.830017-4.830017
					c2.669983,0,4.830017,2.169983,4.830017,4.830017C93.580017,51.44001,91.419983,53.609993,88.75,53.609993z"/>
			</g>
			<g>
				<g>
					<path class="st1" d="M96.174271,93.1017v-16.834c0-1.479622-1.118294-2.77047-2.594994-2.863411
						c-1.616211-0.101715-2.954712,1.178207-2.954712,2.769188v7.72863c0,0.291801-0.380722,0.403275-0.538094,0.157547
						l-2.688072-4.197083l-0.075691-0.107689c-0.506645-0.675537-1.316093-1.115204-2.224541-1.115204
						c-0.902634,0-1.706253,0.430923-2.212898,1.100624l-0.087349,0.122269l-2.982704,4.278694
						c-0.16259,0.233231-0.528809,0.118179-0.528809-0.16613v-7.707474c0-1.479614-1.118309-2.770462-2.595001-2.863373
						c-1.616219-0.101692-2.954697,1.178223-2.954697,2.769188V93.18943c0,1.531555,1.240387,2.774857,2.774857,2.774857
						c0.902626,0,1.706253-0.430923,2.212891-1.100632l0.087341-0.122269l6.006683-8.48101
						c0.117249-0.16555,0.363586-0.163582,0.47818,0.003822l5.796684,8.468445l0.087364,0.125183
						c0.544601,0.723022,1.432358,1.170143,2.424606,1.099068C95.070114,95.851967,96.174271,94.570251,96.174271,93.1017z"/>
					<path class="st1" d="M121.961098,84.745499c0-6.196106-5.022682-11.218788-11.218773-11.218788
						c-6.196106,0-11.218788,5.022682-11.218788,11.218788s5.022682,11.218788,11.218788,11.218788
						C116.938416,95.964287,121.961098,90.941605,121.961098,84.745499z M116.405586,84.745499
						c0,3.127167-2.536095,5.663246-5.663261,5.663246c-3.127159,0-5.663254-2.536079-5.663254-5.663246
						c0-3.127159,2.536095-5.663239,5.663254-5.663239C113.869492,79.08226,116.405586,81.61834,116.405586,84.745499z"/>
				</g>
				<g>
					<path class="st1" d="M23.476461,93.1017v-16.834c0-1.479622-1.118294-2.77047-2.59499-2.863411
						c-1.616209-0.101715-2.95471,1.178207-2.95471,2.769188v7.72863c0,0.291801-0.380724,0.403275-0.538099,0.157547
						l-2.688069-4.197083l-0.075689-0.107689c-0.50665-0.675537-1.316092-1.115204-2.224544-1.115204
						c-0.902637,0-1.706251,0.430923-2.212902,1.100624l-0.087347,0.122269l-2.982706,4.278694
						c-0.162589,0.233231-0.528803,0.118179-0.528803-0.16613l0.000001-7.707474c0-1.479614-1.11831-2.770462-2.595008-2.863373
						c-1.616212-0.101692-2.954692,1.178223-2.954692,2.769188V93.18943c0,1.531555,1.240387,2.774857,2.774858,2.774857
						c0.90262,0,1.706252-0.430923,2.212884-1.100632l0.087348-0.122269l6.006679-8.48101
						c0.117253-0.16555,0.363587-0.163582,0.478179,0.003822l5.796687,8.468445l0.087366,0.125183
						c0.544598,0.723022,1.432352,1.170143,2.424603,1.099068C22.372311,95.851967,23.476461,94.570251,23.476461,93.1017z"/>
					<path class="st1" d="M49.26329,84.745499c0-6.196106-5.022682-11.218788-11.218769-11.218788
						c-6.196106,0-11.218788,5.022682-11.218788,11.218788s5.022682,11.218788,11.218788,11.218788
						C44.240608,95.964287,49.26329,90.941605,49.26329,84.745499z M43.707779,84.745499
						c0,3.127167-2.536095,5.663246-5.663258,5.663246s-5.663261-2.536079-5.663261-5.663246
						c0-3.127159,2.536098-5.663239,5.663261-5.663239S43.707779,81.61834,43.707779,84.745499z"/>
				</g>
				<path class="st1" d="M70.791145,84.500183c0.019554,0.293945-0.009804,0.578148-0.078407,0.852478
					c-0.078407,0.313568-0.205795,0.607521-0.382164,0.862297c0,0.009811,0,0.009811-0.009811,0.019615
					c-0.078346,0.107773-0.156754,0.215546-0.254715,0.313568c-0.088211,0.107773-0.18618,0.19593-0.284203,0.274338
					c-0.097961,0.0784-0.195984,0.156807-0.303757,0.225349c-0.421341,0.254776-0.921082,0.411591-1.459999,0.411591H54.975971
					c-0.538921,0-1.038666-0.147003-1.460003-0.411591l-0.078407-0.058792l-0.127388-0.088158
					c-0.078346-0.058784-0.156754-0.117577-0.225353-0.186172c-0.107769-0.098022-0.205795-0.205795-0.293949-0.32338
					c-0.048981-0.058792-0.088215-0.117577-0.127388-0.176369c-0.058792-0.088211-0.107773-0.176369-0.156815-0.27433
					c-0.048981-0.09803-0.097961-0.195992-0.127388-0.294014c-0.078346-0.205734-0.127327-0.41153-0.156754-0.636879
					c-0.009808-0.107834-0.019615-0.215607-0.019615-0.32338c0-0.068596,0-0.147003,0.009808-0.215538
					c0-0.029427,0-0.049042,0.009808-0.078407c0.009808-0.068604,0.009808-0.127388,0.029427-0.18618
					c0.088154-0.529167,0.333122-0.989685,0.685863-1.371849c0.058788-0.068596,0.11758-0.127388,0.186176-0.18618
					l0.009811-0.009804c0.195984-0.166565,0.41153-0.313507,0.63694-0.431152
					c0.372356-0.186111,0.783886-0.293945,1.205227-0.303757h12.95396c0.46051,0,0.901466,0.107834,1.293381,0.303757
					c0.098022,0.049042,0.195984,0.107834,0.284203,0.156815c0.176369,0.127388,0.342934,0.264587,0.489937,0.41153
					c0.078346,0.068604,0.146942,0.147011,0.215546,0.235161c0.274391,0.342995,0.460571,0.744713,0.538918,1.19548
					C70.77153,84.304192,70.781342,84.402214,70.791145,84.500183z"/>
			</g>
		</g>
		<path class="st0" d="M52.099976,22.760017c0.01001,0.289978,0.01001,0.579956-0.019958,0.869995
			c-0.01001,0.299988-0.059998,0.609985-0.110046,0.909973c-0.029968,0.160034-0.069946,0.330017-0.109985,0.48999
			c-0.519958,2.059998-1.809998,3.790039-3.640015,4.869995c-1.23999,0.740051-2.629944,1.120056-4.039978,1.120056
			c-0.330017,0-0.659973-0.02002-0.98999-0.059998c-0.330017-0.040039-0.659973-0.100037-0.98999-0.190002
			c-0.070007-0.02002-0.140015-0.040039-0.210022-0.059998c-0.709961-0.200012-1.380005-0.5-1.98999-0.880005
			c-0.27002-0.170044-0.530029-0.350037-0.780029-0.540039c-0.129944-0.099976-0.25-0.200012-0.369995-0.309998
			c-0.009949,0-0.019958-0.01001-0.029968-0.019958c-0.109985-0.100037-0.210022-0.210022-0.320007-0.310059
			c-0.109985-0.109985-0.219971-0.22998-0.320007-0.349976C38.059998,28.18,37.960022,28.060005,37.869995,27.93
			c-0.190002-0.26001-0.369995-0.530029-0.539978-0.809998c-0.179993-0.309998-0.340027-0.619995-0.48999-0.950012
			c0-0.01001,0-0.01001,0-0.01001c-0.070007-0.159973-0.130005-0.320007-0.190002-0.48999s-0.110046-0.339966-0.160034-0.51001
			c-0.039978-0.169983-0.089966-0.339966-0.119995-0.51001c-0.029968-0.159973-0.059998-0.319946-0.089966-0.48999v-0.070007
			C36.25,23.93,36.23999,23.770027,36.22998,23.609993c-0.01001-0.179993-0.019958-0.359985-0.019958-0.539978
			c0-0.160034,0.009949-0.320007,0.019958-0.48999c0-0.150024,0.02002-0.300049,0.040039-0.460022
			c0-0.02002,0-0.039978,0.01001-0.059998c0.019958-0.160034,0.039978-0.309998,0.069946-0.460022
			c0.030029-0.169983,0.070007-0.339966,0.110046-0.5c0-0.01001,0-0.01001,0-0.01001c0.070007-0.25,0.139954-0.5,0.22998-0.73999
			c0.090027-0.25,0.190002-0.48999,0.299988-0.719971c0.109985-0.23999,0.23999-0.460022,0.369995-0.679993
			c0.080017-0.130005,0.150024-0.25,0.230042-0.360046c0.139954-0.199951,0.279968-0.389954,0.440002-0.569946
			c0.119995-0.150024,0.23999-0.300049,0.379944-0.430054c0.090027-0.109985,0.180054-0.199951,0.27002-0.269958
			c0.039978-0.049988,0.090027-0.090027,0.140015-0.130005c0.089966-0.090027,0.190002-0.169983,0.289978-0.25
			c0.090027-0.080017,0.190002-0.160034,0.299988-0.23999c0.070007-0.059998,0.150024-0.110046,0.230042-0.160034
			c1.279968-0.899963,2.839966-1.419983,4.529968-1.419983c0.320007,0,0.640015,0.02002,0.970032,0.059998
			c0.159973,0.02002,0.329956,0.049988,0.48999,0.080017c0.159973,0.029968,0.299988,0.059998,0.460022,0.099976
			c0.149963,0.030029,0.289978,0.080017,0.440002,0.119995c0.129944,0.040039,0.25,0.080017,0.369995,0.119995
			c0.359985,0.130005,0.699951,0.290039,1.029968,0.470032c0.01001,0,0.02002,0,0.030029,0.01001
			c0.179993,0.099976,0.349976,0.199951,0.519958,0.309998c0.820007,0.529968,1.540039,1.199951,2.119995,2h-0.009949
			c0.029968,0.039978,0.049988,0.070007,0.079956,0.109985c0.090027,0.130005,0.179993,0.26001,0.25,0.399963
			c0.030029,0.040039,0.049988,0.070007,0.070007,0.110046C51,19.029976,51.01001,19.049995,51.02002,19.070015
			c0.059998,0.109985,0.119995,0.209961,0.179993,0.320007c0.039978,0.079956,0.089966,0.159973,0.130005,0.25
			c0.01001,0.019958,0.019958,0.049988,0.029968,0.070007c0.01001,0.009949,0.01001,0.029968,0.01001,0.039978
			c0.099976,0.190002,0.179993,0.390015,0.25,0.589966c0.080017,0.220032,0.150024,0.440002,0.210022,0.660034
			c0.029968,0.119995,0.059998,0.23999,0.089966,0.359985c0.040039,0.160034,0.059998,0.309998,0.090027,0.470032
			c0,0.009949,0,0.009949,0,0.009949c0.029968,0.160034,0.049988,0.320007,0.059998,0.480042
			C52.080017,22.469978,52.099976,22.609993,52.099976,22.760017z"/>
		<path class="st0" d="M46.75,38.43c0,0.210022-0.01001,0.409973-0.030029,0.609985c0,0.059998-0.009949,0.119995-0.019958,0.170044
			c0,0.029968,0,0.049988-0.01001,0.079956c-0.02002,0.170044-0.039978,0.330017-0.080017,0.48999
			c0,0.030029-0.01001,0.070007-0.019958,0.100037c-0.02002,0.109985-0.050049,0.209961-0.080017,0.309998
			c0,0.01001,0,0.02002-0.01001,0.029968c-0.049988,0.190002-0.119995,0.380005-0.179993,0.559998
			c0,0.01001,0,0.02002-0.02002,0.040039c-0.049988,0.140015-0.109985,0.279968-0.169983,0.409973
			c-0.070007,0.160034-0.150024,0.320007-0.22998,0.470032c-0.059998,0.099976-0.119995,0.199951-0.180054,0.289978
			c-0.059998,0.099976-0.129944,0.200012-0.199951,0.299988c-0.100037,0.150024-0.220032,0.299988-0.340027,0.450012
			c-0.099976,0.119995-0.210022,0.22998-0.309998,0.340027C44.559998,43.399971,44.22998,43.68,43.859985,43.93
			c-0.070007,0.049988-0.140015,0.099976-0.209961,0.140015c-0.130005,0.089966-0.26001,0.169983-0.400024,0.23999
			c-0.190002,0.099976-0.380005,0.200012-0.580017,0.279968c0,0,0,0-0.01001,0c-0.159973,0.070007-0.329956,0.140015-0.5,0.190002
			H41.98999v0.059998c-0.609985,0.180054-1.26001,0.280029-1.929993,0.280029H40c-0.080017,0-0.159973,0-0.23999-0.01001
			c-0.090027,0-0.179993-0.01001-0.26001-0.01001c-0.109985-0.01001-0.200012-0.019958-0.299988-0.039978
			c-0.070007,0-0.140015-0.01001-0.200012-0.030029c-0.099976-0.009949-0.190002-0.029968-0.280029-0.049988
			c-0.159973-0.029968-0.319946-0.070007-0.469971-0.119995c-0.02002,0.01001-0.030029,0-0.049988-0.01001
			c-0.090027-0.019958-0.179993-0.049988-0.27002-0.079956c-0.029968-0.01001-0.059998-0.02002-0.089966-0.030029
			c-0.130005-0.039978-0.26001-0.090027-0.380005-0.150024c-0.059998-0.019958-0.119995-0.049988-0.179993-0.079956
			c-0.140015-0.059998-0.27002-0.130005-0.400024-0.200012C36.690002,44.21003,36.5,44.099983,36.320007,43.979988
			c-0.359985-0.25-0.700012-0.539978-1.01001-0.849976c-0.140015-0.140015-0.27002-0.290039-0.400024-0.440002
			c-0.009949-0.01001-0.019958-0.02002-0.029968-0.030029c-0.119995-0.159973-0.23999-0.320007-0.359985-0.48999
			c-0.01001-0.01001-0.02002-0.029968-0.030029-0.039978c-0.099976-0.150024-0.190002-0.309998-0.289978-0.480042
			c0-0.009949-0.01001-0.019958-0.01001-0.029968c-0.049988-0.099976-0.099976-0.190002-0.150024-0.289978
			C34,41.239998,33.950012,41.140022,33.909973,41.039986c-0.019958-0.039978-0.039978-0.079956-0.049988-0.119995
			c-0.059998-0.140015-0.109985-0.289978-0.159973-0.440002c-0.02002-0.059998-0.040039-0.109985-0.049988-0.169983
			c-0.050049-0.169983-0.100037-0.349976-0.130005-0.530029c-0.040039-0.190002-0.070007-0.380005-0.100037-0.579956
			c0-0.059998-0.01001-0.110046-0.01001-0.170044c-0.019958-0.199951-0.029968-0.399963-0.029968-0.599976
			s0.01001-0.400024,0.029968-0.590027c0-0.069946,0.01001-0.139954,0.02002-0.199951
			c0.039978-0.369995,0.109985-0.730042,0.220032-1.080017c0.019958-0.049988,0.029968-0.099976,0.049988-0.150024
			c0-0.01001,0-0.029968,0.01001-0.039978c0-0.01001,0-0.01001,0-0.02002c0.059998-0.179993,0.119995-0.349976,0.199951-0.519958
			c0-0.02002,0.01001-0.030029,0.02002-0.050049c0.080017-0.179993,0.160034-0.359985,0.26001-0.529968
			c0.099976-0.190002,0.210022-0.369995,0.330017-0.549988c0.059998-0.080017,0.109985-0.160034,0.169983-0.23999
			c0.070007-0.090027,0.140015-0.180054,0.210022-0.27002c0.019958-0.02002,0.039978-0.049988,0.059998-0.070007
			c0.119995-0.140015,0.25-0.280029,0.380005-0.409973c0.149963-0.150024,0.309998-0.300049,0.469971-0.430054
			c0.150024-0.119995,0.299988-0.23999,0.450012-0.349976c0.039978-0.02002,0.080017-0.049988,0.109985-0.070007
			c0.090027-0.059998,0.179993-0.119995,0.280029-0.169983c0.069946-0.049988,0.149963-0.090027,0.22998-0.130005
			c0.150024-0.080017,0.309998-0.160034,0.469971-0.22998c0.160034-0.070007,0.330017-0.140015,0.490051-0.200012
			c0.139954-0.049988,0.279968-0.090027,0.419983-0.130005s0.279968-0.080017,0.419983-0.109985
			c0.030029,0,0.059998-0.01001,0.100037-0.02002c0.169983-0.030029,0.349976-0.059998,0.529968-0.080017h0.030029
			c0.039978-0.01001,0.079956-0.01001,0.129944-0.01001c0.02002-0.009949,0.040039-0.009949,0.060059-0.009949
			c0.129944-0.01001,0.259949-0.02002,0.399963-0.02002h0.130005c0.119995,0,0.22998,0,0.340027,0.01001
			c0.119995,0,0.22998,0.01001,0.339966,0.019958c0.049988,0.01001,0.100037,0.01001,0.150024,0.02002
			c0.140015,0.02002,0.279968,0.039978,0.409973,0.070007c0.049988,0,0.100037,0.01001,0.150024,0.029968
			c0.149963,0.030029,0.289978,0.060059,0.429993,0.110046c0.039978,0,0.080017,0.01001,0.109985,0.029968
			c0.080017,0.02002,0.160034,0.049988,0.23999,0.080017c0.02002,0,0.030029,0,0.040039,0.01001
			c0.130005,0.039978,0.269958,0.089966,0.389954,0.149963c0.26001,0.100037,0.51001,0.230042,0.75,0.369995
			c0.120056,0.070007,0.240051,0.140015,0.350037,0.220032c0.049988,0.02002,0.089966,0.049988,0.130005,0.080017
			c0.140015,0.109985,0.279968,0.209961,0.419983,0.320007c0,0,0.01001,0.009949,0.02002,0.019958
			c0.149963,0.130005,0.299988,0.26001,0.440002,0.400024c0.199951,0.190002,0.380005,0.390015,0.539978,0.609985
			c0.099976,0.130005,0.200012,0.25,0.299988,0.390015c0,0.01001,0.01001,0.02002,0.02002,0.039978
			c0.059998,0.090027,0.109985,0.179993,0.169983,0.27002c0.02002,0.029968,0.030029,0.070007,0.049988,0.099976
			c0.02002,0.01001,0.02002,0.030029,0.02002,0.040039c0.099976,0.159973,0.179993,0.320007,0.25,0.47998
			c0.030029,0.029968,0.039978,0.070007,0.049988,0.109985c0.090027,0.169983,0.150024,0.350037,0.210022,0.530029
			c0.01001,0.01001,0.02002,0.019958,0.01001,0.029968c0.029968,0.080017,0.049988,0.150024,0.079956,0.230042
			c0.01001,0.009949,0.01001,0.019958,0.01001,0.029968c0.050049,0.169983,0.100037,0.349976,0.130005,0.52002
			C46.700012,37.510017,46.75,37.969978,46.75,38.43z"/>
	</g>
</switch>
</svg>
