<?xml version="1.0" encoding="utf-8"?>
<!-- Generator: Adobe Illustrator 22.1.0, SVG Export Plug-In . SVG Version: 6.00 Build 0)  -->
<svg version="1.1" id="Layer_1" xmlns="http://www.w3.org/2000/svg" xmlns:xlink="http://www.w3.org/1999/xlink" x="0px" y="0px"
	 viewBox="0 0 124 87" style="enable-background:new 0 0 124 87;" xml:space="preserve">
<style type="text/css">
	.st0{fill:#010101;}
	.st1{fill:#69BFA9;}
</style>
<g>
	<g>
		<path class="st0" d="M76.8068924,1.7953815H47.1931038c-2.186985,0-3.9590607,1.7720768-3.9590607,3.9590631v35.3940201
			h37.5319176V5.7544446C80.7659607,3.5674584,78.9938812,1.7953815,76.8068924,1.7953815z M61.8416367,31.9634399
			c-6.307579,0-11.4385185-5.130949-11.4385185-11.4385204c0-6.3075819,5.1309395-11.4385309,11.4385185-11.4385309
			s11.4385223,5.130949,11.4385223,11.4385309C73.280159,26.8324909,68.1492157,31.9634399,61.8416367,31.9634399z"/>
		<path class="st1" d="M72.1716232,20.5249195c0,5.6962948-4.6336899,10.3299828-10.3299866,10.3299828
			s-10.3299828-4.633688-10.3299828-10.3299828c0-0.4133339,0.0237503-0.8203163,0.0712547-1.2193928
			c0.8567467,0.1900368,1.3745956,0.7696381,1.917778,1.3777542c0.7047157,0.7886429,1.4315948,1.6026287,2.8980331,1.6026287
			c1.4680214,0,2.1949005-0.8139858,2.8980293-1.6026287c0.6635399-0.7427197,1.2906609-1.4442654,2.5448875-1.4442654
			c1.2542305,0,1.8797646,0.7015457,2.5433044,1.4442654c0.703125,0.7886429,1.4315948,1.6026287,2.8980331,1.6026287
			c1.4680176,0,2.1949005-0.8139858,2.8996124-1.6026287c0.5416107-0.6081161,1.0594482-1.1877174,1.917778-1.3777542
			C72.1478729,19.7046032,72.1716232,20.1115856,72.1716232,20.5249195z"/>
	</g>
	<g>
		<path class="st0" d="M37.1870117,56.3413353h4.1113281l-8.2226563,28.8632851h-4.1113281l-7.5322266-23.4082069
			l-7.4501953,23.4082069H9.9926758L1.6479492,56.3413353h4.1113281l6.3505859,22.5937538l7.2460938-22.5937538h4.1933594
			l7.4091797,22.8383827L37.1870117,56.3413353z"/>
		<path class="st0" d="M55.8325195,69.4907532c-0.5693359-0.081543-1.1259766-0.1225586-1.6689453-0.1225586
			c-1.6015625,0-2.8974609,0.4682617-3.8886719,1.4047852c-0.9902344,0.9360352-1.4853516,2.4770508-1.4853516,4.6206055v9.8110352
			h-3.8271484v-19.581543h3.7460938v3.4194336c0.3515625-0.7592773,0.765625-1.3769531,1.2412109-1.8520508
			c0.4746094-0.4746094,0.9697266-0.8549805,1.4853516-1.1401367c0.515625-0.284668,1.0449219-0.4814453,1.5878906-0.5898438
			s1.0585938-0.1630859,1.546875-0.1630859c0.2714844,0,0.5234375,0.0141602,0.7539063,0.0405273
			c0.2304688,0.0273438,0.4003906,0.0546875,0.5087891,0.081543V69.4907532z"/>
		<path class="st0" d="M60.065918,58.2138939c0-0.7871094,0.2646484-1.4453125,0.7939453-1.9746094
			s1.1728516-0.7939453,1.9335938-0.7939453c0.7871094,0,1.4453125,0.2646484,1.9736328,0.7939453
			c0.5292969,0.5292969,0.7949219,1.1875,0.7949219,1.9746094c0,0.7602539-0.265625,1.4042969-0.7949219,1.9335938
			c-0.5283203,0.5292969-1.1865234,0.7939453-1.9736328,0.7939453c-0.7607422,0-1.4042969-0.2646484-1.9335938-0.7939453
			S60.065918,58.9741478,60.065918,58.2138939z M60.9213867,85.2046204v-19.581543h3.7851563v19.581543H60.9213867z"/>
		<path class="st0" d="M76.0649414,85.2046204H72.237793v-19.581543h3.7451172v2.809082
			c0.7060547-1.2211914,1.6015625-2.0898438,2.6875-2.6054688c1.0849609-0.5151367,2.1982422-0.7734375,3.3378906-0.7734375
			c1.1660156,0,2.1914063,0.1972656,3.0732422,0.590332c0.8818359,0.3935547,1.6142578,0.9360352,2.1982422,1.628418
			c0.5839844,0.6918945,1.0185547,1.5131836,1.3027344,2.4628906c0.2851563,0.9501953,0.4277344,1.9677734,0.4277344,3.0532227
			v12.4165039h-3.8271484V73.4394836c0-0.6782227-0.0742188-1.315918-0.2236328-1.9135742
			c-0.1494141-0.5966797-0.4072266-1.1196289-0.7734375-1.5673828s-0.8417969-0.7998047-1.4248047-1.0581055
			c-0.5839844-0.2578125-1.2958984-0.3867188-2.1367188-0.3867188c-0.7607422,0-1.4257813,0.1420898-1.9951172,0.4272461
			c-0.5703125,0.2851563-1.0449219,0.671875-1.4248047,1.1601563c-0.3808594,0.4887695-0.6660156,1.0585938-0.8554688,1.7099609
			s-0.2841797,1.3432617-0.2841797,2.0761719V85.2046204z"/>
		<path class="st0" d="M105.3344727,73.8872375l8.5087891,11.3173828h-4.8037109l-6.3916016-8.6303711l-2.7275391,2.7275391
			v5.902832h-3.7861328V55.7304955h3.7861328v18.5639687l8.4677734-8.6713867h5.2919922L105.3344727,73.8872375z"/>
		<path class="st1" d="M118.5249023,85.2046204V55.7304955h3.8271484v29.4741249H118.5249023z"/>
	</g>
</g>
</svg>
